<?xml version="1.0" standalone="no"?>
<!DOCTYPE svg PUBLIC "-//W3C//DTD SVG 20010904//EN"
 "http://www.w3.org/TR/2001/REC-SVG-20010904/DTD/svg10.dtd">
<svg version="1.0" xmlns="http://www.w3.org/2000/svg"
 width="323.000000pt" height="323.000000pt" viewBox="0 0 323.000000 323.000000"
 preserveAspectRatio="xMidYMid meet">
<metadata>
Created by potrace 1.14, written by Peter Selinger 2001-2017
</metadata>
<g transform="translate(0.000000,323.000000) scale(0.100000,-0.100000)"
fill="#000000" stroke="none">
<path d="M606 3194 c-3 -9 -6 -473 -6 -1033 0 -778 3 -1020 12 -1029 9 -9 252
-12 1030 -12 l1018 0 13 23 c11 18 13 196 12 1022 0 550 -4 1010 -9 1023 l-7
22 -1029 0 c-928 0 -1028 -2 -1034 -16z m1155 -725 c18 -9 20 -20 18 -124 -1
-62 2 -118 5 -124 4 -6 4 -11 -1 -11 -9 0 -9 -200 0 -224 4 -9 3 -16 -1 -16
-9 0 -7 -54 3 -69 3 -6 3 -11 -2 -11 -9 0 -9 -200 0 -224 4 -9 3 -16 -1 -16
-5 0 -7 -19 -6 -42 2 -54 -24 -139 -54 -172 -12 -15 -22 -29 -22 -32 0 -8 -61
-58 -84 -68 -90 -39 -158 -45 -246 -20 -49 14 -73 28 -114 68 -78 75 -107 147
-97 236 1 5 10 14 21 20 16 8 21 6 31 -12 6 -12 14 -38 16 -57 14 -103 117
-199 216 -203 141 -5 236 72 263 212 2 8 4 212 4 452 1 424 2 441 28 447 2 1
12 -4 23 -10z m514 -2 c122 -33 213 -138 231 -267 6 -44 -13 -72 -43 -64 -13
4 -23 14 -24 23 -6 111 -38 164 -133 221 -53 32 -145 35 -206 6 -46 -22 -107
-74 -102 -88 1 -4 -1 -8 -6 -8 -16 0 -36 -68 -36 -125 0 -134 95 -231 238
-243 151 -12 272 -105 302 -232 18 -72 7 -167 -27 -232 -21 -41 -93 -109 -139
-130 -136 -63 -317 -12 -394 111 -28 43 -49 105 -48 140 0 61 1 62 29 59 24
-3 28 -9 38 -58 20 -98 63 -155 144 -192 81 -37 196 -19 260 41 54 50 74 99
75 176 2 146 -88 236 -250 250 -147 14 -239 87 -287 230 -15 46 -13 151 4 171
6 8 9 14 5 14 -13 0 46 95 72 117 15 13 33 27 40 33 16 14 81 42 106 47 11 2
21 5 23 7 5 4 105 -1 128 -7z"/>
<path d="M1310 455 l0 -426 108 3 107 3 0 71 c0 60 4 76 24 103 23 30 41 40
41 22 0 -5 17 -38 38 -73 20 -35 45 -77 54 -93 l17 -30 115 -3 114 -3 -11 26
c-7 13 -15 25 -19 25 -5 0 -8 7 -8 15 0 8 -4 15 -10 15 -5 0 -10 4 -10 10 0 5
-34 62 -76 126 -42 64 -78 123 -81 129 -4 13 7 30 56 84 13 14 40 46 60 71 20
25 38 47 41 50 3 3 16 18 29 33 l24 27 -119 0 -119 0 -55 -72 c-30 -40 -61
-80 -67 -88 -7 -8 -18 -23 -26 -33 -11 -15 -13 17 -12 195 0 117 -1 219 -3
226 -3 8 -34 12 -108 12 l-104 0 0 -425z"/>
<path d="M2835 826 c-164 -52 -238 -191 -177 -337 20 -49 98 -105 208 -149
110 -45 134 -60 134 -88 -1 -39 -17 -47 -97 -47 -67 0 -85 4 -127 27 -27 16
-54 28 -60 28 -11 -1 -106 -120 -106 -134 0 -14 110 -75 162 -91 185 -53 367
5 426 135 23 51 24 148 3 196 -27 60 -75 95 -206 148 -66 27 -126 56 -133 63
-21 21 -7 59 26 71 44 15 137 -4 175 -36 19 -17 24 -13 104 84 30 38 31 40 13
56 -77 72 -241 107 -345 74z"/>
<path d="M53 820 l-43 -5 16 -30 c8 -16 15 -31 15 -32 0 -2 20 -46 44 -98 25
-53 45 -97 45 -99 0 -2 26 -59 58 -127 l59 -124 -1 -138 -1 -137 108 0 c100 0
107 1 108 20 3 65 2 89 -4 103 -4 10 -3 17 1 17 4 0 6 29 4 64 -3 45 1 73 12
95 9 17 13 31 9 31 -5 0 -3 4 2 8 6 4 37 65 70 137 32 72 78 171 101 220 23
50 41 91 40 92 -2 3 -168 6 -202 4 -15 -1 -24 -12 -34 -43 -8 -24 -13 -46 -12
-50 1 -5 -3 -8 -10 -8 -6 0 -9 -2 -6 -5 3 -3 -8 -41 -24 -83 -16 -42 -31 -85
-33 -94 -2 -10 -8 -26 -14 -35 -8 -15 -10 -16 -15 -3 -2 8 -14 44 -26 80 -12
36 -23 70 -25 75 -1 6 -5 17 -8 25 -3 8 -16 43 -28 78 -17 49 -26 62 -43 63
-11 0 -43 1 -71 2 -27 1 -69 0 -92 -3z"/>
<path d="M2355 820 l-80 -5 -1 -255 c-1 -284 -5 -323 -37 -345 -37 -26 -94
-19 -128 14 l-29 29 -60 -40 c-33 -21 -62 -44 -65 -49 -6 -9 28 -62 60 -92 70
-64 227 -82 319 -36 56 28 101 75 130 138 19 43 20 65 22 344 1 163 -2 297 -5
298 -27 4 -57 3 -126 -1z"/>
<path d="M813 640 c-95 -25 -175 -65 -156 -79 4 -3 21 -32 38 -63 27 -54 49
-72 57 -48 5 14 118 40 152 34 57 -9 76 -58 24 -62 -50 -4 -144 -29 -185 -51
-39 -20 -104 -81 -87 -81 5 0 3 -4 -4 -8 -29 -19 -18 -154 16 -190 6 -7 12
-17 12 -21 0 -4 18 -17 39 -29 72 -41 164 -33 234 18 21 16 32 19 40 11 6 -6
7 -11 3 -11 -5 0 -3 -7 4 -15 9 -11 34 -15 97 -15 l84 0 0 53 c-1 28 -1 60 -1
70 0 9 1 46 1 82 0 36 0 71 0 78 1 26 -10 153 -15 174 -30 134 -176 197 -353
153z m153 -381 c1 -66 -71 -104 -117 -63 -17 15 -17 19 -3 45 8 16 16 29 17
29 1 0 20 7 42 15 52 18 60 15 61 -26z"/>
</g>
</svg>
